PathFileType	4	(X/Y/Z)	c:/Users/goper/Files/vsCode/490R/osim_files/C11/C11_SSWS_05.trc
DataRate	CameraRate	NumFrames	NumMarkers	Units                	OrigDataRate	OrigDataStartFrame	OrigNumFrames
120.00	120.00	6	36	mm	120.0	854	1366
                Frame#	Time	LPSI			LASI			LTH1			LTH2			LTH3			LTH4			LLFE			LMFE			LSH1			LSH2			LSH3			LSH4			LLMA			LMMA			LCAL			LMTP			LTOE			LMTP			RPSI			RASI			RTH1			RTH2			RTH3			RTH4			RLFE			RMFE			RSH1			RSH2			RSH3			RSH4			RLMA			RMMA			RCAL			RMTP			RTOE			RMTP		
		X1	Y1	Z1	X2	Y2	Z2	X3	Y3	Z3	X4	Y4	Z4	X5	Y5	Z5	X6	Y6	Z6	X7	Y7	Z7	X8	Y8	Z8	X9	Y9	Z9	X10	Y10	Z10	X11	Y11	Z11	X12	Y12	Z12	X13	Y13	Z13	X14	Y14	Z14	X15	Y15	Z15	X16	Y16	Z16	X17	Y17	Z17	X18	Y18	Z18	X19	Y19	Z19	X20	Y20	Z20	X21	Y21	Z21	X22	Y22	Z22	X23	Y23	Z23	X24	Y24	Z24	X25	Y25	Z25	X26	Y26	Z26	X27	Y27	Z27	X28	Y28	Z28	X29	Y29	Z29	X30	Y30	Z30	X31	Y31	Z31	X32	Y32	Z32	X33	Y33	Z33	X34	Y34	Z34	X35	Y35	Z35	X36	Y36	Z36

854	7.10833	-1778.32703	999.79480	297.31650	-1954.24963	1009.98425	363.86722	-2015.05774	630.67181	411.89227	-2039.85339	590.26562	409.37683	-2069.36108	655.27405	424.52020	-2085.25317	611.73651	416.05481	-2075.27710	544.32434	405.87799	-2101.09229	544.72461	294.14960	-1995.37964	481.34741	419.16354	-1974.27539	441.13397	422.96771	-2047.11255	449.35507	429.65826	-2019.70947	414.03305	431.79526	-1854.93201	199.03813	393.05225	-1897.37061	187.09131	304.86160	-1792.97534	187.51970	332.19049	-1920.99902	100.28461	440.41946	-2000.86255	79.49656	385.73389	-1962.82483	74.98817	337.09879	-1783.98010	1016.04370	212.27399	-1951.75256	997.88641	132.00020	-1880.98572	631.21375	114.48279	-1886.36255	588.69305	123.51581	-1943.74646	632.78748	127.13941	-1939.84717	591.06488	132.52872	-1905.32007	506.44604	146.57370	-1879.25391	496.68912	259.92734	-1832.09448	399.23465	137.68257	-1834.03259	353.46707	144.04460	-1893.49841	392.56598	146.15456	-1886.89148	346.67795	149.71835	-1829.83142	95.30978	214.52959	-1857.52734	107.84621	308.07474	-1768.63855	61.40687	271.56293	-1985.72607	51.57030	291.12985	-1988.61145	64.30519	239.46906	-1945.95984	41.94203	178.35281
855	7.11667	-1785.95264	1000.46185	297.93491	-1962.88428	1010.20398	363.42877	-2025.96814	631.93793	411.90659	-2051.20215	591.88586	409.33890	-2080.17285	657.07361	423.61990	-2096.68091	614.00842	415.43951	-2086.85229	545.68439	405.15439	-2109.46729	545.46796	293.98898	-2010.09387	478.78876	419.93771	-1990.87927	437.83261	423.74603	-2063.39673	449.13947	429.54559	-2037.51733	412.52661	431.75015	-1882.79834	189.83772	394.69128	-1924.82080	179.27721	305.67200	-1821.22168	175.00638	335.00040	-1954.58069	94.47823	440.99756	-2034.64832	77.84559	385.25613	-1996.34766	71.44725	336.75470	-1791.80396	1016.30231	212.94383	-1958.95154	997.45581	131.60857	-1884.34167	631.44470	114.39865	-1889.37427	588.73279	123.34514	-1947.13403	632.31079	126.80672	-1942.89001	590.65161	132.22806	-1907.28564	506.15207	146.27908	-1881.83875	496.64209	259.82089	-1833.47705	399.41901	137.69913	-1834.51770	353.75745	144.26122	-1894.82971	392.33987	145.88655	-1887.92944	346.50934	149.47263	-1829.82361	95.39398	214.63223	-1857.86389	107.89709	308.32864	-1768.82971	61.23721	271.80908	-1985.71436	51.38635	291.22205	-1988.64746	64.26566	239.47401	-1945.93237	41.94764	178.31882
856	7.12500	-1794.70789	1000.37903	298.93829	-1971.36890	1010.22626	363.06482	-2036.21228	632.85571	411.78180	-2061.78540	592.91052	409.11026	-2090.45898	658.46228	422.76202	-2107.29053	615.39124	414.55902	-2098.43701	546.90204	404.68481	-2119.84570	546.99719	293.48407	-2024.62231	475.56750	420.75766	-2007.38171	434.06891	424.62482	-2079.39087	448.42197	429.29974	-2055.21045	410.73615	431.78491	-1911.35095	180.51053	396.18390	-1952.30774	172.28223	306.66205	-1849.51343	162.70532	337.35187	-1988.46887	88.90450	441.31247	-2068.79053	76.34061	384.00766	-2029.60632	68.21002	336.41992	-1799.68994	1016.31659	213.60594	-1966.32275	996.89539	131.37320	-1887.82886	631.53601	114.25105	-1892.36096	588.80939	123.18873	-1950.63074	631.77356	126.61373	-1946.47766	590.14050	132.41475	-1909.31226	505.83414	146.08698	-1884.26233	496.58960	259.66528	-1835.01453	399.52429	137.65675	-1835.86096	353.95694	144.15230	-1896.25208	392.08960	145.63625	-1889.10620	346.38281	149.27713	-1829.52966	95.65407	215.01135	-1858.01953	108.47945	309.70163	-1768.87561	61.25959	271.86169	-1985.98682	51.56276	291.12469	-1988.63647	64.16084	239.45282	-1945.82727	41.94116	178.25897
857	7.13333	-1802.88354	1000.51697	299.67889	-1979.98169	1010.16345	362.61316	-2045.95215	633.34692	411.53488	-2071.84814	593.46033	408.78778	-2100.42188	659.37830	422.02011	-2117.19629	616.30157	413.70480	-2109.56226	547.09149	404.28809	-2129.63428	548.06238	293.08377	-2039.30713	471.79578	422.20267	-2023.68494	429.90091	425.48380	-2095.21826	447.38632	429.14856	-2072.82471	408.57849	431.67368	-1940.34985	171.34207	397.47946	-1980.28540	165.47160	306.59433	-1878.49365	150.64069	339.51688	-2022.80469	83.75940	441.21573	-2102.18970	75.40387	382.90695	-2063.91016	65.39980	335.80963	-1807.57324	1016.38708	214.22598	-1973.59436	996.28510	131.09711	-1891.38599	631.56006	114.15617	-1895.65002	588.80963	123.02683	-1954.20422	631.17664	126.48917	-1949.64795	589.57684	132.21713	-1911.51672	505.58939	145.82353	-1886.67554	496.56747	259.56787	-1836.61755	399.69525	137.55656	-1837.15588	354.12390	144.12592	-1897.92908	391.87552	145.39137	-1890.46594	346.18726	149.15179	-1829.60022	95.67924	215.06271	-1861.71387	106.62561	306.76828	-1768.92395	61.28503	271.87158	-1986.00378	51.50073	291.11969	-1988.76355	64.06421	239.38556	-1945.84753	41.87530	178.21562
858	7.14167	-1810.71350	1000.91278	300.28235	-1989.14099	1009.87885	362.54004	-2055.02515	633.34894	411.16748	-2081.18628	593.58929	408.43500	-2109.21655	659.64905	421.13675	-2126.53760	616.64575	412.92221	-2119.59375	546.96936	403.80292	-2138.87573	548.68213	292.72467	-2053.13306	467.95499	422.98560	-2040.10803	425.36105	426.22708	-2110.41870	446.06509	428.78891	-2090.08667	406.13818	431.65338	-1969.99670	162.19731	398.41251	-2008.36255	158.68974	307.04855	-1908.15906	138.46875	341.25244	-2057.36768	78.94621	440.75198	-2136.28247	74.75444	380.99277	-2097.20166	62.90979	334.51108	-1815.35388	1016.47443	214.75752	-1980.99243	995.59503	130.86299	-1895.13904	631.60199	114.03931	-1899.06335	588.72736	122.97037	-1958.07178	630.60229	126.40402	-1952.92883	588.97986	132.01361	-1913.88440	505.29056	145.57840	-1889.09375	496.46667	259.44342	-1838.43884	399.83038	137.42319	-1839.21863	354.12341	143.74934	-1899.58459	391.60349	145.17738	-1891.97375	346.01633	148.90111	-1829.31946	95.76662	214.84175	-1860.09595	107.53672	307.57443	-1768.98828	61.28355	271.93515	-1985.91064	51.73679	289.89203	-1988.79468	63.93964	239.33813	-1945.83911	41.82322	178.16492
859	7.15000	-1819.71045	1000.59650	301.29242	-1997.20410	1009.41327	361.95819	-2063.66479	632.87372	410.70154	-2089.90552	593.18994	407.95026	-2117.61694	659.42102	420.40903	-2134.95605	616.37048	412.15402	-2129.61401	546.46283	403.51926	-2149.77417	549.93640	292.24728	-2067.03540	463.55017	423.97714	-2056.27197	420.45004	427.02139	-2125.19336	444.65826	428.68192	-2107.13110	403.63593	431.40152	-1999.71301	153.69456	398.98361	-2036.94775	152.21429	307.29691	-1938.82922	126.69981	342.93689	-2092.20264	74.73317	439.82034	-2170.64160	75.26303	378.89117	-2131.48218	61.27542	332.57346	-1823.52576	1016.26129	215.58061	-1988.48328	994.85132	130.63326	-1899.06079	631.51776	113.96694	-1902.87598	588.56091	122.74001	-1962.00183	630.00800	126.36712	-1956.37256	588.38525	131.85173	-1916.51990	505.07010	145.45367	-1891.69250	496.31204	259.34998	-1840.25195	400.04324	137.33514	-1840.19153	354.46088	143.91289	-1901.47131	391.48526	144.94820	-1893.41956	345.91357	148.78487	-1829.39697	95.85140	214.89751	-1858.54529	108.05185	308.24069	-1769.50220	61.01131	270.53482	-1986.64270	51.67283	289.51773	-1988.82849	63.84727	239.31337	-1945.83105	41.81099	178.10156
